<?xml version="1.0" standalone="no"?><!DOCTYPE svg PUBLIC "-//W3C//DTD SVG 1.1//EN" "http://www.w3.org/Graphics/SVG/1.1/DTD/svg11.dtd"><svg t="1728530684172" class="icon" viewBox="0 0 1088 1024" version="1.1" xmlns="http://www.w3.org/2000/svg" p-id="14106" xmlns:xlink="http://www.w3.org/1999/xlink" width="212.5" height="200"><path d="M864 0a192 192 0 0 1 192 192v640a192 192 0 0 1-192 192h-640a192 192 0 0 1-192-192V192a192 192 0 0 1 192-192h640z m-67.904 564.224H291.84v50.048H516.48v174.464H230.08v50.752h627.84v-50.752H570.112V614.272h225.92v-50.048zM612.096 357.44l-27.968 41.92c71.36 32.384 141.312 76.544 209.024 132.48l30.144-44.864a1002.752 1002.752 0 0 0-211.2-129.536z m-153.856 5.12c-53.76 49.344-121.408 89.088-203.84 119.296l22.784 48.512c85.376-34.56 156.8-78.016 214.208-129.536l-33.152-38.272z m88.32-178.112l-57.408 8.896c11.072 20.544 21.376 43.392 30.912 68.416H231.552v147.2h53.76V311.04h517.376v98.688h53.76V261.76H574.528a833.728 833.728 0 0 0-27.968-77.312z" fill="#1296db" p-id="14107"></path></svg>